grf
version=1
nRows=14
nColumns=37
inDegrees=no
endheader
time	ground_force_1_vx	ground_force_1_vy	ground_force_1_vz	ground_force_1_px	ground_force_1_py	ground_force_1_pz	ground_moment_1_mx	ground_moment_1_my	ground_moment_1_mz	ground_force_2_vx	ground_force_2_vy	ground_force_2_vz	ground_force_2_px	ground_force_2_py	ground_force_2_pz	ground_moment_2_mx	ground_moment_2_my	ground_moment_2_mz	ground_force_3_vx	ground_force_3_vy	ground_force_3_vz	ground_force_3_px	ground_force_3_py	ground_force_3_pz	ground_moment_3_mx	ground_moment_3_my	ground_moment_3_mz	ground_force_4_vx	ground_force_4_vy	ground_force_4_vz	ground_force_4_px	ground_force_4_py	ground_force_4_pz	ground_moment_4_mx	ground_moment_4_my	ground_moment_4_mz
      3.43000000	      0.00000000	     -0.00000000	      0.00000000	      0.00000000	      0.00000000	      0.00000000	      0.00000000	      0.00000000	      0.00000000	    -20.78604889	     -3.82611299	   -823.89154053	   -232.53285579	  -1057.97861081	      0.00000000	      0.00000000	     -0.00000000	  -1141.14734854	      0.00000000	     -0.00000000	      0.00000000	      0.00000000	      0.00000000	      0.00000000	      0.00000000	      0.00000000	      0.00000000	    -35.04846049	     16.34219857	     75.83084869	    603.20491847	   -564.64926670	      0.00000000	      0.00000000	     -0.00000000	   -114.21923734
      3.44000000	      0.00000000	     -0.00000000	      0.00000000	      0.00000000	      0.00000000	      0.00000000	      0.00000000	      0.00000000	      0.00000000	    -18.45368004	     -3.27205539	   -822.73474121	   -234.36337553	  -1058.54687787	      0.00000000	     -0.00000000	     -0.00000000	  -1368.41952478	      0.00000000	     -0.00000000	      0.00000000	      0.00000000	      0.00000000	      0.00000000	      0.00000000	      0.00000000	      0.00000000	    -34.81844570	     16.18173141	     75.25362396	    607.09938436	   -563.81435160	      0.00000000	      0.00000000	      0.00000000	   -182.66301709
      3.45000000	      0.00000000	     -0.00000000	      0.00000000	      0.00000000	      0.00000000	      0.00000000	      0.00000000	      0.00000000	      0.00000000	    -10.04883766	      2.08830476	   -828.86273193	   -236.39421957	  -1061.00846990	      0.00000000	     -0.00000000	     -0.00000000	  -1904.41167840	      0.00000000	     -0.00000000	      0.00000000	      0.00000000	      0.00000000	      0.00000000	      0.00000000	      0.00000000	      0.00000000	    -35.45192578	     16.09187818	     75.50421143	    607.06429235	   -565.08317914	      0.00000000	      0.00000000	      0.00000000	     17.78635864
      3.46000000	      0.00000000	     -0.00000000	      0.00000000	      0.00000000	      0.00000000	      0.00000000	      0.00000000	      0.00000000	      0.00000000	     -9.29052258	      5.55212593	   -831.16064453	   -236.24126184	  -1063.62279251	      0.00000000	     -0.00000000	     -0.00000000	  -2139.76159253	      0.00000000	     -0.00000000	      0.00000000	      0.00000000	      0.00000000	      0.00000000	      0.00000000	      0.00000000	      0.00000000	    -34.81181194	     16.13591117	     76.45866394	    599.22540394	   -562.01127503	      0.00000000	      0.00000000	     -0.00000000	   -156.17339974
      3.47000000	      0.00000000	     -0.00000000	      0.00000000	      0.00000000	      0.00000000	      0.00000000	      0.00000000	      0.00000000	      0.00000000	    -13.35487270	      3.38695526	   -828.48596191	   -234.64623630	  -1064.49970952	      0.00000000	     -0.00000000	     -0.00000000	  -1760.53812219	      0.00000000	     -0.00000000	      0.00000000	      0.00000000	      0.00000000	      0.00000000	      0.00000000	      0.00000000	      0.00000000	    -34.56181197	     15.78191392	     75.17636108	    607.05437644	   -562.50193862	      0.00000000	     -0.00000000	     -0.00000000	    -75.14707106
      3.48000000	      0.00000000	     -0.00000000	      0.00000000	      0.00000000	      0.00000000	      0.00000000	      0.00000000	      0.00000000	      0.00000000	    -12.34810162	      3.08254576	   -823.66448975	   -233.11822798	  -1064.52836190	      0.00000000	      0.00000000	     -0.00000000	  -1676.82680511	      0.00000000	     -0.00000000	      0.00000000	      0.00000000	      0.00000000	      0.00000000	      0.00000000	      0.00000000	      0.00000000	    -34.81762555	     16.03911132	     75.12766266	    608.05843019	   -565.12674368	      0.00000000	      0.00000000	     -0.00000000	   -101.69204014
      3.49000000	      0.00000000	     -0.00000000	      0.00000000	      0.00000000	      0.00000000	      0.00000000	      0.00000000	      0.00000000	      0.00000000	    -13.00027561	      3.47608566	   -824.52990723	   -232.77106732	  -1066.21638291	      0.00000000	     -0.00000000	     -0.00000000	  -1530.01934361	      0.00000000	     -0.00000000	      0.00000000	      0.00000000	      0.00000000	      0.00000000	      0.00000000	      0.00000000	      0.00000000	    -35.05565116	     16.69795343	     75.50204468	    603.93384388	   -563.75188654	      0.00000000	      0.00000000	     -0.00000000	   -228.96185221
      3.50000000	      0.00000000	     -0.00000000	      0.00000000	      0.00000000	      0.00000000	      0.00000000	      0.00000000	      0.00000000	      0.00000000	    -14.89815521	      5.04576778	   -822.83734131	   -231.28669756	  -1068.07665788	      0.00000000	      0.00000000	     -0.00000000	  -1419.05851123	      0.00000000	     -0.00000000	      0.00000000	      0.00000000	      0.00000000	      0.00000000	      0.00000000	      0.00000000	      0.00000000	    -34.96631096	     16.60232277	     75.47814941	    606.30312084	   -565.25138123	      0.00000000	     -0.00000000	     -0.00000000	   -169.99848936
      3.51000000	      0.00000000	     -0.00000000	      0.00000000	      0.00000000	      0.00000000	      0.00000000	      0.00000000	      0.00000000	      0.00000000	    -17.00383377	      8.41411591	   -817.32946777	   -229.52977606	  -1068.88941184	      0.00000000	     -0.00000000	     -0.00000000	  -1310.24968404	      0.00000000	     -0.00000000	      0.00000000	      0.00000000	      0.00000000	      0.00000000	      0.00000000	      0.00000000	      0.00000000	    -35.07361843	     16.10456773	     76.06404114	    605.16153376	   -562.49689952	      0.00000000	      0.00000000	      0.00000000	     -0.53261438
      3.52000000	      0.00000000	     -0.00000000	      0.00000000	      0.00000000	      0.00000000	      0.00000000	      0.00000000	      0.00000000	      0.00000000	    -19.33501053	     11.14130020	   -817.25842285	   -227.67873845	  -1070.23176720	      0.00000000	      0.00000000	     -0.00000000	  -1647.12153726	      0.00000000	     -0.00000000	      0.00000000	      0.00000000	      0.00000000	      0.00000000	      0.00000000	      0.00000000	      0.00000000	    -35.05021145	     16.17106553	     76.43889618	    603.11619742	   -564.33693497	      0.00000000	      0.00000000	     -0.00000000	    -68.98913917
      3.53000000	      0.00000000	     -0.00000000	      0.00000000	      0.00000000	      0.00000000	      0.00000000	      0.00000000	      0.00000000	      0.00000000	    -20.60762787	     11.18949699	   -821.45025635	   -227.04061695	  -1070.66940317	      0.00000000	      0.00000000	     -0.00000000	  -1321.27272937	      0.00000000	     -0.00000000	      0.00000000	      0.00000000	      0.00000000	      0.00000000	      0.00000000	      0.00000000	      0.00000000	    -35.03309494	     15.76790162	     77.70764923	    595.57989428	   -560.66365043	      0.00000000	     -0.00000000	     -0.00000000	     89.95653528
      3.54000000	      0.00000000	     -0.00000000	      0.00000000	      0.00000000	      0.00000000	      0.00000000	      0.00000000	      0.00000000	      0.00000000	    -19.25791550	      9.25801754	   -827.12457275	   -226.26263760	  -1070.30297576	      0.00000000	      0.00000000	     -0.00000000	  -1053.91123085	      0.00000000	     -0.00000000	      0.00000000	      0.00000000	      0.00000000	      0.00000000	      0.00000000	      0.00000000	      0.00000000	    -34.73835611	     16.37447661	     76.74681854	    601.13668053	   -560.83012391	      0.00000000	      0.00000000	     -0.00000000	   -253.87290530
      3.55000000	      0.00000000	     -0.00000000	      0.00000000	      0.00000000	      0.00000000	      0.00000000	      0.00000000	      0.00000000	      0.00000000	    -17.44175339	      9.28097725	   -827.96685791	   -225.64401766	  -1070.35786028	      0.00000000	      0.00000000	     -0.00000000	   -669.79430052	      0.00000000	     -0.00000000	      0.00000000	      0.00000000	      0.00000000	      0.00000000	      0.00000000	      0.00000000	      0.00000000	    -35.22974636	     16.20019839	     74.35768127	    612.23329610	   -564.15307876	      0.00000000	      0.00000000	     -0.00000000	   -104.87405130
      3.56000000	      0.00000000	     -0.00000000	      0.00000000	      0.00000000	      0.00000000	      0.00000000	      0.00000000	      0.00000000	      0.00000000	    -18.71165657	      9.17479897	   -828.98028564	   -225.17081172	  -1070.46375607	      0.00000000	      0.00000000	     -0.00000000	   -707.54520100	      0.00000000	     -0.00000000	      0.00000000	      0.00000000	      0.00000000	      0.00000000	      0.00000000	      0.00000000	      0.00000000	    -34.56429150	     16.04811398	     75.10375977	    605.87506847	   -563.81453423	      0.00000000	      0.00000000	     -0.00000000	   -149.84820598
